<svg data-v-423bf9ae="" xmlns="http://www.w3.org/2000/svg" viewBox="0 0 345.38929830182633 60" class="font"><!----><!----><!----><g data-v-423bf9ae="" id="4ba17150-168c-4d74-9891-7a45b6d27079" fill="black" transform="matrix(4.921499729156494,0,0,4.921499729156494,-4.133290767669678,-18.205705642700195)"><path d="M9.04 5.67C9.04 5.82 8.92 5.95 8.78 5.95L4.27 5.95L6.55 8.69L7.34 8.69C7.53 8.69 7.67 8.81 7.67 8.96L7.67 10.60C7.67 10.75 7.53 10.88 7.34 10.88L3.02 10.88L3.02 15.51C3.02 15.67 2.91 15.81 2.76 15.81L1.12 15.81C0.97 15.81 0.84 15.67 0.84 15.51L0.84 8.69L3.70 8.69L0.84 5.25L0.84 4.06C0.84 3.89 0.97 3.77 1.12 3.77L8.78 3.77C8.92 3.77 9.04 3.89 9.04 4.06ZM15.27 15.82C11.96 15.82 9.25 13.12 9.25 9.80C9.25 6.48 11.96 3.78 15.27 3.78C18.59 3.78 21.29 6.48 21.29 9.80C21.29 13.12 18.59 15.82 15.27 15.82ZM15.27 5.96C13.16 5.96 11.44 7.69 11.44 9.80C11.44 11.91 13.16 13.62 15.27 13.62C17.39 13.62 19.10 11.91 19.10 9.80C19.10 7.69 17.39 5.96 15.27 5.96ZM30.83 12.05C30.83 13.22 30.35 14.22 29.47 14.92C28.73 15.50 27.76 15.82 26.73 15.82C25.69 15.82 24.72 15.50 23.98 14.92C23.10 14.22 22.62 13.22 22.62 12.05L22.62 4.07C22.62 3.92 22.75 3.78 22.90 3.78L24.54 3.78C24.70 3.78 24.81 3.92 24.81 4.07L24.81 12.05C24.81 13.58 26.53 13.64 26.73 13.64C26.92 13.64 28.64 13.58 28.64 12.05L28.64 4.07C28.64 3.92 28.77 3.78 28.91 3.78L30.56 3.78C30.70 3.78 30.83 3.92 30.83 4.07ZM40.71 15.89L34.69 9.32L34.69 15.53C34.69 15.68 34.58 15.81 34.43 15.81L32.79 15.81C32.63 15.81 32.51 15.68 32.51 15.53L32.51 3.70L38.53 10.26L38.53 4.06C38.53 3.91 38.65 3.78 38.79 3.78L40.45 3.78C40.59 3.78 40.71 3.91 40.71 4.06ZM45.67 15.81C47.03 15.82 48.38 15.37 49.50 14.45C52.05 12.35 52.43 8.55 50.32 5.99C49.14 4.55 47.40 3.79 45.67 3.79L42.67 3.79C42.52 3.79 42.39 3.92 42.39 4.06L42.39 15.47C42.39 15.67 42.52 15.81 42.67 15.81ZM48.64 7.38C49.98 9.00 49.74 11.42 48.10 12.75C47.40 13.34 46.54 13.64 45.67 13.62L44.58 13.62L44.58 5.98L45.67 5.98C46.77 5.98 47.88 6.45 48.64 7.38ZM61.29 15.54C61.29 15.69 61.17 15.82 61.03 15.82L53.37 15.82C53.21 15.82 53.09 15.69 53.09 15.54L53.09 4.06C53.09 3.91 53.21 3.78 53.37 3.78L60.75 3.78C60.90 3.78 61.03 3.91 61.03 4.06L61.03 5.70C61.03 5.85 60.90 5.96 60.75 5.96L55.27 5.96L55.27 8.71L60.47 8.71C60.62 8.71 60.75 8.82 60.75 8.97L60.75 10.61C60.75 10.77 60.62 10.89 60.47 10.89L55.27 10.89L55.27 13.62L61.03 13.62C61.17 13.62 61.29 13.75 61.29 13.90ZM70.55 15.37L68.32 11.42L68.01 10.89L67.94 10.77C69.97 10.32 71.02 8.82 71.02 7.35C71.02 6.38 70.57 5.46 69.80 4.82C69.02 4.14 67.91 3.79 66.64 3.79L62.55 3.79C62.40 3.79 62.27 3.92 62.27 4.06L62.27 5.17L62.41 5.42L62.41 5.43L64.27 8.71L62.27 8.71L62.27 15.54C62.27 15.69 62.40 15.82 62.55 15.82L64.19 15.82C64.33 15.82 64.46 15.69 64.46 15.54L64.46 10.89L65.51 10.89L65.80 11.42L68.19 15.65L68.22 15.69C68.26 15.76 68.35 15.82 68.45 15.82L70.32 15.82C70.48 15.82 70.59 15.69 70.59 15.53C70.59 15.48 70.59 15.44 70.56 15.40ZM66.49 8.19L65.24 5.98L66.64 5.98C68.15 5.98 68.82 6.69 68.82 7.35C68.82 7.91 68.32 8.53 67.19 8.68C67.06 8.69 66.92 8.71 66.78 8.71Z"></path></g><!----><!----></svg>