<svg data-v-fde0c5aa="" xmlns="http://www.w3.org/2000/svg" viewBox="0 0 300 300" class="font"><!----><defs data-v-fde0c5aa=""><!----></defs><rect data-v-fde0c5aa="" fill="transparent" x="0" y="0" width="300px" height="300px" class="logo-background-square"></rect><defs data-v-fde0c5aa=""><linearGradient data-v-fde0c5aa="" gradientTransform="rotate(25)" id="54ff37f7-07bd-49f1-aa51-3b80cef545b5" x1="0%" y1="0%" x2="100%" y2="0%"><stop data-v-fde0c5aa="" offset="0%" stop-color="#E90DCA" stop-opacity="1"></stop><stop data-v-fde0c5aa="" offset="100%" stop-color="#1536F1" stop-opacity="1"></stop></linearGradient></defs><g data-v-fde0c5aa="" id="30fa99a8-aad2-43ba-9e7c-bd4e0c68d554" fill="url(#54ff37f7-07bd-49f1-aa51-3b80cef545b5)" transform="matrix(4.150331497192383,0,0,4.150331497192383,35.47678703021371,115.33014001473838)"><path d="M2.61 13.33L1.57 13.33L1.57 13.33Q1.09 13.33 1.09 12.82L1.09 12.82L1.09 4.04L1.09 4.04Q1.09 3.53 1.57 3.53L1.57 3.53L6.98 3.53L6.98 3.53Q7.49 3.53 7.49 3.97L7.49 3.97L7.49 4.78L7.49 4.78Q7.49 5.22 6.98 5.22L6.98 5.22L3.09 5.22L3.09 7.60L6.42 7.60L6.42 7.60Q6.93 7.60 6.93 8.05L6.93 8.05L6.93 8.85L6.93 8.85Q6.93 9.30 6.42 9.30L6.42 9.30L3.09 9.30L3.09 12.82L3.09 12.82Q3.09 13.33 2.61 13.33L2.61 13.33ZM8.59 9.74L8.59 9.74L8.59 9.74Q8.59 8.00 9.48 7.01L9.48 7.01L9.48 7.01Q10.38 6.02 12.16 6.02L12.16 6.02L12.16 6.02Q13.94 6.02 14.84 7.01L14.84 7.01L14.84 7.01Q15.74 8.00 15.74 9.74L15.74 9.74L15.74 9.74Q15.74 11.48 14.84 12.48L14.84 12.48L14.84 12.48Q13.94 13.47 12.16 13.47L12.16 13.47L12.16 13.47Q10.38 13.47 9.48 12.48L9.48 12.48L9.48 12.48Q8.59 11.48 8.59 9.74ZM10.61 9.74L10.61 9.74L10.61 9.74Q10.61 11.04 11.01 11.58L11.01 11.58L11.01 11.58Q11.41 12.13 12.16 12.13L12.16 12.13L12.16 12.13Q12.91 12.13 13.31 11.58L13.31 11.58L13.31 11.58Q13.71 11.04 13.71 9.74L13.71 9.74L13.71 9.74Q13.71 8.44 13.31 7.90L13.31 7.90L13.31 7.90Q12.91 7.36 12.16 7.36L12.16 7.36L12.16 7.36Q11.41 7.36 11.01 7.90L11.01 7.90L11.01 7.90Q10.61 8.44 10.61 9.74ZM17.20 10.35L17.20 10.35L17.20 6.56L17.20 6.56Q17.20 6.15 17.61 6.15L17.61 6.15L18.70 6.15L18.70 6.15Q19.11 6.15 19.11 6.56L19.11 6.56L19.11 9.86L19.11 9.86Q19.11 11.35 19.32 11.74L19.32 11.74L19.32 11.74Q19.52 12.13 20.18 12.13L20.18 12.13L20.18 12.13Q20.88 12.13 21.24 11.57L21.24 11.57L21.24 11.57Q21.60 11.01 21.60 9.26L21.60 9.26L21.60 6.56L21.60 6.56Q21.60 6.15 22.01 6.15L22.01 6.15L23.11 6.15L23.11 6.15Q23.52 6.15 23.52 6.56L23.52 6.56L23.52 12.92L23.52 12.92Q23.52 13.33 23.11 13.33L23.11 13.33L22.03 13.33L22.03 13.33Q21.62 13.33 21.62 12.92L21.62 12.92L21.62 12.52L21.59 12.52L21.59 12.52Q21.27 13.06 20.79 13.27L20.79 13.27L20.79 13.27Q20.30 13.47 19.64 13.47L19.64 13.47L19.64 13.47Q18.59 13.47 17.90 12.80L17.90 12.80L17.90 12.80Q17.20 12.13 17.20 10.35ZM26.88 13.33L25.79 13.33L25.79 13.33Q25.38 13.33 25.38 12.92L25.38 12.92L25.38 6.56L25.38 6.56Q25.38 6.15 25.79 6.15L25.79 6.15L26.87 6.15L26.87 6.15Q27.28 6.15 27.28 6.56L27.28 6.56L27.28 6.96L27.30 6.96L27.30 6.96Q27.62 6.42 28.10 6.22L28.10 6.22L28.10 6.22Q28.59 6.02 29.27 6.02L29.27 6.02L29.27 6.02Q30.34 6.02 31.04 6.69L31.04 6.69L31.04 6.69Q31.73 7.36 31.73 9.13L31.73 9.13L31.73 12.92L31.73 12.92Q31.73 13.33 31.32 13.33L31.32 13.33L30.23 13.33L30.23 13.33Q29.82 13.33 29.82 12.92L29.82 12.92L29.82 9.63L29.82 9.63Q29.82 8.13 29.61 7.75L29.61 7.75L29.61 7.75Q29.41 7.36 28.73 7.36L28.73 7.36L28.73 7.36Q28.01 7.36 27.65 7.91L27.65 7.91L27.65 7.91Q27.29 8.47 27.29 10.23L27.29 10.23L27.29 12.92L27.29 12.92Q27.29 13.33 26.88 13.33L26.88 13.33ZM33.20 9.74L33.20 9.74L33.20 9.74Q33.20 8.24 33.85 7.13L33.85 7.13L33.85 7.13Q34.50 6.02 36.11 6.02L36.11 6.02L36.11 6.02Q36.72 6.02 37.16 6.19L37.16 6.19L37.16 6.19Q37.60 6.37 37.95 6.96L37.95 6.96L37.98 6.96L37.98 6.96Q37.95 6.69 37.95 6.41L37.95 6.41L37.95 3.65L37.95 3.65Q37.95 3.24 38.36 3.24L38.36 3.24L39.46 3.24L39.46 3.24Q39.87 3.24 39.87 3.65L39.87 3.65L39.87 12.92L39.87 12.92Q39.87 13.33 39.46 13.33L39.46 13.33L38.38 13.33L38.38 13.33Q38.04 13.33 38.01 12.92L38.01 12.92L37.98 12.52L37.95 12.52L37.95 12.52Q37.60 13.11 37.16 13.29L37.16 13.29L37.16 13.29Q36.72 13.47 36.11 13.47L36.11 13.47L36.11 13.47Q34.50 13.47 33.85 12.36L33.85 12.36L33.85 12.36Q33.20 11.25 33.20 9.74ZM35.22 9.74L35.22 9.74L35.22 9.74Q35.22 10.83 35.50 11.48L35.50 11.48L35.50 11.48Q35.79 12.13 36.71 12.13L36.71 12.13L36.71 12.13Q37.22 12.13 37.59 11.55L37.59 11.55L37.59 11.55Q37.95 10.97 37.95 10.05L37.95 10.05L37.95 9.43L37.95 9.43Q37.95 8.51 37.59 7.93L37.59 7.93L37.59 7.93Q37.22 7.36 36.71 7.36L36.71 7.36L36.71 7.36Q35.79 7.36 35.50 8.00L35.50 8.00L35.50 8.00Q35.22 8.65 35.22 9.74ZM41.34 9.74L41.34 9.74L41.34 9.74Q41.34 8.01 42.21 7.01L42.21 7.01L42.21 7.01Q43.07 6.02 44.65 6.02L44.65 6.02L44.65 6.02Q46.48 6.02 47.37 6.96L47.37 6.96L47.37 6.96Q48.26 7.90 48.26 9.99L48.26 9.99L48.26 9.99Q48.26 10.40 47.88 10.40L47.88 10.40L43.37 10.40L43.37 10.40Q43.48 11.54 43.93 11.83L43.93 11.83L43.93 11.83Q44.38 12.13 44.97 12.13L44.97 12.13L44.97 12.13Q45.54 12.13 45.84 11.98L45.84 11.98L45.84 11.98Q46.14 11.83 46.35 11.57L46.35 11.57L46.35 11.57Q46.58 11.27 46.92 11.47L46.92 11.47L47.61 11.89L47.61 11.89Q48.01 12.13 47.72 12.48L47.72 12.48L47.72 12.48Q47.30 12.97 46.74 13.22L46.74 13.22L46.74 13.22Q46.18 13.47 44.97 13.47L44.97 13.47L44.97 13.47Q43.01 13.47 42.18 12.47L42.18 12.47L42.18 12.47Q41.34 11.47 41.34 9.74ZM43.37 9.04L43.37 9.04L46.35 9.04L46.35 9.04Q46.35 8.30 45.98 7.83L45.98 7.83L45.98 7.83Q45.61 7.36 44.80 7.36L44.80 7.36L44.80 7.36Q44.16 7.36 43.78 7.81L43.78 7.81L43.78 7.81Q43.41 8.26 43.37 9.04ZM51.26 13.33L50.16 13.33L50.16 13.33Q49.75 13.33 49.75 12.92L49.75 12.92L49.75 6.56L49.75 6.56Q49.75 6.15 50.16 6.15L50.16 6.15L51.24 6.15L51.24 6.15Q51.65 6.15 51.65 6.56L51.65 6.56L51.65 7.12L51.68 7.12L51.68 7.12Q51.86 6.69 52.27 6.35L52.27 6.35L52.27 6.35Q52.69 6.02 53.26 6.02L53.26 6.02L53.26 6.02Q53.65 6.02 53.90 6.11L53.90 6.11L53.90 6.11Q54.14 6.20 54.09 6.44L54.09 6.44L53.89 7.25L53.89 7.25Q53.83 7.53 53.53 7.42L53.53 7.42L53.53 7.42Q53.35 7.36 53.18 7.36L53.18 7.36L53.18 7.36Q52.53 7.36 52.10 8.14L52.10 8.14L52.10 8.14Q51.67 8.93 51.67 10.43L51.67 10.43L51.67 12.92L51.67 12.92Q51.67 13.33 51.26 13.33L51.26 13.33Z"></path></g><!----><!----></svg>